<svg xmlns="http://www.w3.org/2000/svg" width="422" height="472" fill="none" viewBox="0 0 422 472">
  <path fill="#191919" d="M420.86 330.067c-.554-2.343-4.111-1.349-3.539.989a37.533 37.533 0 0 1 .28 15.871 2.801 2.801 0 0 0-2.264-.143 31.72 31.72 0 0 0-13.329 14.877 24.357 24.357 0 0 1-7.927 9.596 24.38 24.38 0 0 1-11.634 4.43 59.329 59.329 0 0 0-23.23 7.783c-7.09 5.166-12.047 13.385-20.836 16.009-8.931 2.691-18.572.708-27.366 4.389a68.784 68.784 0 0 0-20.338 15.797c-10.182 9.773-14.629 8.703-27.572 9.425-17.813 1.032-23.927 11.557-32.672 17.711a30.334 30.334 0 0 1-14.883 5.384c-8.148.92-17.366 1.865-22.043 9.419-.143-.069-.211-.212-.354-.28-8.708-8.219-10.487-20.335-13.254-31.314a1.048 1.048 0 0 0-1.147-.723 1.051 1.051 0 0 0-.906 1.009c1.064 19.123 9.566 39.949 31.185 41.584 18.46 1.418 44.72-10.046 63.441-18.209 33.2-14.411 93.008-44.519 121.693-66.732 17.216-13.522 32.143-33.931 26.695-56.872Zm-156.735 7.51a144.64 144.64 0 0 1 21.259-.217 45.155 45.155 0 0 1 5.883-21.25 54.878 54.878 0 0 1 11.55-13.888 63.745 63.745 0 0 1-12.613-8.082 49.92 49.92 0 0 0-18.963 18.165 49.891 49.891 0 0 0-7.116 25.272Z"/>
  <path fill="#191919" d="M196.419 427.402c15.673-1.312 23.591-10.059 54.645-16.861 19.493-4.177 39.476-6.092 58.54-12.042a287.841 287.841 0 0 0 53.37-26.421c15.45-8.704 33.238-16.718 44.508-30.96 13.982-17.718 8.502-35.207-4.976-38.321-9.211-2.201-19.206 1.343-27.851 4.109-20.345 6.534-17.415 5.67-18.143 5.309-6.089-6.086-22.142-4.308-29.344-4.389a52.48 52.48 0 0 0-13.323 32.328 53.852 53.852 0 0 0 34.588-7.578c4.888-3.333 12.259-10.631 10.131-17.003 10.35-3.047 20.413-7.019 31.043-9.071 22.807-4.352 28.224 13.857 16.09 30.96-9.641 13.385-25.656 20.895-39.688 28.759a391.306 391.306 0 0 1-49.757 26.111c-23.902 9.145-50.696 10.382-76.395 17.072-21.551 5.781-34.376 15.592-49.614 14.298a23.139 23.139 0 0 1-19.493-13.956 78.605 78.605 0 0 1-5.1-21.393c-1.063-7.367-3.47-20.26 7.582-20.689 9.074-.355 15.661 7.653 23.958 10.202a22.634 22.634 0 0 0 20.27-3.824c12.296-9.86 7.874-27.354 27.142-37.687a22.542 22.542 0 0 0 15.947 1.561h.212a51.343 51.343 0 0 1 5.008-23.72 51.388 51.388 0 0 1 15.33-18.785 89.321 89.321 0 0 1 5.386-3.898 32.35 32.35 0 0 0-20.525-8.573 29.683 29.683 0 0 0-24.094 15.02c-5.25 9.294-6.338 29.02.354 36.412-16.855 8.965-15.45 22.381-23.013 33.012-6.804 9.493-17.999 9.418-27.217 3.966-6.443-3.73-12.968-8.498-20.836-7.155a11.681 11.681 0 0 0-9.422 8.504 6.964 6.964 0 0 0-6.1-2.394 6.963 6.963 0 0 0-5.382 3.737 10.316 10.316 0 0 0 .143 11.191 13.552 13.552 0 0 0 5.455 4.109 18.715 18.715 0 0 1 6.736 5.458c1.244 1.244 2.04 17.613 12.259 26.422a28.839 28.839 0 0 0 21.576 6.18Zm-40.515-42.996c-2.544-1.642-4.46-6.59-1.344-8.928 3.403-2.549 5.244.777 6.376 4.321.071 2.56.279 5.115.622 7.653-1.848-1.138-4.043-1.996-5.654-3.046Z"/>
  <path fill="#191919" d="M288.91 337.646c7.227.621 14.672 1.772 22.111 2.337a52.603 52.603 0 0 1 11.556-32.327 57.35 57.35 0 0 1-15.81-3.73 44.219 44.219 0 0 0-17.857 33.72Z"/>
  <path fill="#EF233C" d="M240.926 374.271c7.233 11.905 27.217 10.201 38.842 8.43a64.622 64.622 0 0 0 20.201-6.304c4.391-2.338 14.454-7.865 14.175-13.603a2.17 2.17 0 0 0-2.694-2.051c-2.624.354-4.042 2.76-5.958 4.463-10.965 9.947-29.232 13.677-43.942 12.819a48.172 48.172 0 0 1-18.92-5.526c-1.063-.491-2.481.64-1.704 1.772ZM95.827 426.673a23.708 23.708 0 0 0-11.904-2.126c.354-3.966 1.2-7.79 1.772-11.762.212-1.554-1.984-2.972-2.836-1.2a35.044 35.044 0 0 0-3.334 13.105c-4.033.013-8.01.958-11.618 2.76a1.384 1.384 0 0 0-.597 1.536 1.383 1.383 0 0 0 1.3 1.013 91.861 91.861 0 0 0 10.704-.702 26.33 26.33 0 0 0 2.127 13.385 1.764 1.764 0 0 0 1.946.782 1.765 1.765 0 0 0 1.313-1.634 84.89 84.89 0 0 0-.852-12.608c3.877.519 7.793.686 11.7.498 1.274-.286 1.349-2.419.28-3.047ZM26.161 231.576a17.322 17.322 0 0 0-11.91.708 25.007 25.007 0 0 0-10.487-11.476 1.54 1.54 0 0 0-1.958.409 1.54 1.54 0 0 0 .092 1.997 70.612 70.612 0 0 1 7.793 10.631 24.594 24.594 0 0 0-9.285 5.52 1.4 1.4 0 0 0 1.35 2.338c3.333-1.057 6.449-2.692 9.64-3.967a29.985 29.985 0 0 1 1.554 6.522 20.19 20.19 0 0 0 1.064 6.161 1.872 1.872 0 0 0 1.596.898 1.87 1.87 0 0 0 1.595-.898 18.644 18.644 0 0 0-1.207-14.1 32.115 32.115 0 0 0 10.138-2.829c.66-.497.802-1.629.025-1.914Zm223.391-72.328a25.079 25.079 0 0 0 4.391-14.877 1.522 1.522 0 0 0-1.306-1.467 1.525 1.525 0 0 0-1.667 1.039 71.604 71.604 0 0 1-5.1 12.185 23.985 23.985 0 0 0-9.504-5.098c-1.244-.286-2.488 1.343-1.343 2.337 2.55 2.338 5.597 4.11 8.433 6.217-4.795 5.801-7.612 5.856-9.497 8.785a1.823 1.823 0 0 0-.003 1.862 1.832 1.832 0 0 0 1.633.898 18.277 18.277 0 0 0 11.481-8.362 30.765 30.765 0 0 0 7.656 7.23c.622.28 1.698-.074 1.561-.92a16.574 16.574 0 0 0-6.735-9.829ZM238.991 24.504C228.467 10.79 211.848-1.42 193.774.134a1.302 1.302 0 0 0-1.175.802 1.302 1.302 0 0 0 .254 1.399 47.234 47.234 0 0 1 12.122 31.308 17.24 17.24 0 0 0-13.328-2.972c-1.201.212-1.064 1.766-.28 2.338a24.864 24.864 0 0 1 6.22 22.878c-1.201 7.653-3.969 14.38-1.91 22.175a27.07 27.07 0 0 0 10.898 15.732 27.09 27.09 0 0 0 18.583 4.597c25.942-3.22 37.436-43.132 13.833-73.887ZM227.864 77.97a8.956 8.956 0 0 1-11.616-3.725 8.95 8.95 0 0 1-1.141-4.276 11.445 11.445 0 0 1 6.096-13.746 11.405 11.405 0 0 1 13.619 7.733 11.392 11.392 0 0 1-6.958 14.027v-.013Zm-50.939 134.123c-14.797-24.165-39.408-47.18-69.1-48.454a1.309 1.309 0 0 0-1.283 1.274c-.005.223.047.443.151.64a83.03 83.03 0 0 1 13.322 59.645 28.61 28.61 0 0 0-22.608-9.493 1.315 1.315 0 0 0-1.167.805 1.311 1.311 0 0 0 .246 1.396l.212.211c.012.174.06.343.143.497a44.133 44.133 0 0 1 5.741 39.384c-3.477 12.969-10.636 24.246-9.286 38.184a46.19 46.19 0 0 0 15.007 30.306 46.232 46.232 0 0 0 31.64 11.969c44.607-.684 72.969-67.571 36.982-126.364Zm-34.83 99.115c-10.35 3.233-20.096-1.125-21.588-18.911-1.089-13.012 8.433-24.532 20.636-21.138a22.619 22.619 0 0 1 15.481 18.216 20.51 20.51 0 0 1-14.529 21.833ZM393.71 150.246c-3.11-22.946-13.826-48.311-35.508-59.29a1.33 1.33 0 0 0-1.915 1.486 68.473 68.473 0 0 1-10.207 48.952 23.944 23.944 0 0 0-14.031-14.666 1.255 1.255 0 0 0-1.023.149 1.247 1.247 0 0 0-.557.871c-.205 1.349 6.039 16.226-10.679 34.814-7.588 8.43-16.022 14.666-19.213 25.999a38.526 38.526 0 0 0 2.306 27.55 38.549 38.549 0 0 0 20.166 18.921c33.99 13.926 78.498-27.261 70.661-84.786Zm-40.682 57.761c-6.332 20.628-40.428 11.11-27.783-9.984a16.538 16.538 0 0 1 7.895-8.965 16.55 16.55 0 0 1 11.877-1.311 16.93 16.93 0 0 1 8.011 20.26Z"/>
</svg>
